<!DOCTYPE svg PUBLIC "-//W3C//DTD SVG 20010904//EN" "http://www.w3.org/TR/2001/REC-SVG-20010904/DTD/svg10.dtd">
<svg version="1.0" xmlns="http://www.w3.org/2000/svg" width="75px" height="75px" viewBox="0 0 750 750" preserveAspectRatio="xMidYMid meet">
<g id="layer1" fill="#66cc66" stroke="none">
 <path d="M120 735 c0 -8 -8 -15 -19 -15 -10 0 -21 -9 -24 -20 -3 -12 -14 -20 -26 -20 -16 0 -21 -6 -21 -25 0 -16 -6 -25 -15 -25 -13 0 -15 -35 -15 -255 0 -220 2 -255 15 -255 9 0 15 -9 15 -25 0 -19 5 -25 21 -25 12 0 23 -8 26 -20 3 -11 14 -20 24 -20 11 0 19 -7 19 -15 0 -13 35 -15 255 -15 220 0 255 2 255 15 0 8 8 15 19 15 10 0 21 9 24 20 3 12 14 20 26 20 16 0 21 6 21 25 0 16 6 25 15 25 13 0 15 35 15 255 0 220 -2 255 -15 255 -9 0 -15 9 -15 25 0 19 -5 25 -21 25 -12 0 -23 8 -26 20 -3 11 -14 20 -24 20 -11 0 -19 7 -19 15 0 13 -35 15 -255 15 -220 0 -255 -2 -255 -15z"/>
 </g>

</svg>