<!DOCTYPE svg PUBLIC "-//W3C//DTD SVG 20010904//EN" "http://www.w3.org/TR/2001/REC-SVG-20010904/DTD/svg10.dtd">
<svg version="1.0" xmlns="http://www.w3.org/2000/svg" width="35px" height="45px" viewBox="0 0 350 450" preserveAspectRatio="xMidYMid meet">
<g id="layer1" fill="#cccccc" stroke="none">
 <path d="M94 362 c-83 -117 -94 -142 -94 -204 0 -103 60 -158 173 -158 77 0 112 14 151 60 22 27 26 41 26 96 0 36 -5 75 -11 86 -31 57 -152 208 -167 208 -10 0 -42 -37 -78 -88z m133 -153 c20 -18 17 -76 -6 -89 -27 -14 -84 -13 -99 2 -21 21 -15 75 11 93 23 17 69 14 94 -6z"/>
 </g>

</svg>