<!DOCTYPE svg PUBLIC "-//W3C//DTD SVG 20010904//EN" "http://www.w3.org/TR/2001/REC-SVG-20010904/DTD/svg10.dtd">
<svg version="1.0" xmlns="http://www.w3.org/2000/svg" width="95px" height="100px" viewBox="0 0 950 1000" preserveAspectRatio="xMidYMid meet">
<g id="layer1" fill="#666666" stroke="none">
 <path d="M0 500 l0 -500 300 0 300 0 0 500 0 500 -300 0 -300 0 0 -500z m176 430 c50 0 64 -3 64 -15 0 -12 -16 -15 -84 -15 -52 0 -88 4 -92 11 -8 14 16 31 34 24 8 -3 43 -5 78 -5z m342 -14 c3 -15 -6 -16 -84 -14 -57 2 -89 7 -91 15 -3 9 18 13 74 15 98 5 97 5 101 -16z m-7 -421 l0 -320 -221 0 c-121 0 -220 3 -220 8 0 4 0 149 0 322 l0 315 221 -2 220 -3 0 -320z m7 -417 c-7 -19 -449 -19 -455 0 -4 9 46 12 227 12 181 0 231 -3 228 -12z"/>
 <path d="M737 803 c-19 -18 -5 -62 27 -88 19 -15 42 -42 52 -61 10 -19 22 -34 26 -34 5 0 8 -7 8 -15 0 -23 -17 -18 -24 8 -3 12 -20 37 -36 55 -26 28 -37 33 -68 30 -35 -3 -37 -5 -40 -40 -2 -27 1 -38 10 -38 19 0 48 -36 48 -60 0 -11 4 -20 9 -20 33 0 2 -112 -34 -127 -8 -3 -15 -11 -15 -19 0 -8 -4 -14 -10 -14 -5 0 -10 -11 -10 -25 0 -15 6 -25 14 -25 7 0 19 -7 26 -15 11 -13 16 -13 40 2 15 9 39 33 51 54 23 37 39 49 39 30 0 -29 -74 -121 -97 -121 -9 0 -13 -14 -13 -45 0 -45 0 -45 35 -45 28 0 43 9 82 50 97 101 93 89 93 263 0 147 -1 156 -20 162 -11 3 -20 12 -20 18 0 7 -20 35 -45 62 -25 28 -45 53 -45 58 0 9 -74 10 -83 0z m137 -259 c12 -31 6 -101 -9 -114 -13 -11 -15 -3 -15 59 0 67 10 91 24 55z"/>
 </g>

</svg>