<!DOCTYPE svg PUBLIC "-//W3C//DTD SVG 20010904//EN" "http://www.w3.org/TR/2001/REC-SVG-20010904/DTD/svg10.dtd">
<svg version="1.0" xmlns="http://www.w3.org/2000/svg" width="110px" height="190px" viewBox="0 0 1100 1900" preserveAspectRatio="xMidYMid meet">
<g id="layer1" fill="#ffffff" stroke="none">
 <path d="M870 1890 c0 -5 -9 -10 -19 -10 -13 0 -21 -8 -23 -22 -2 -15 -11 -24 -25 -26 -14 -2 -23 -11 -25 -25 -2 -14 -11 -23 -25 -25 -14 -2 -23 -11 -25 -25 -2 -14 -11 -23 -25 -25 -14 -2 -23 -11 -25 -25 -2 -14 -11 -23 -25 -25 -14 -2 -23 -11 -25 -25 -2 -14 -11 -23 -25 -25 -14 -2 -23 -11 -25 -25 -2 -14 -11 -23 -25 -25 -14 -2 -23 -11 -25 -25 -2 -14 -11 -23 -25 -25 -14 -2 -23 -11 -25 -25 -2 -14 -11 -23 -25 -25 -14 -2 -23 -11 -25 -25 -2 -14 -11 -23 -25 -25 -14 -2 -23 -11 -25 -25 -2 -14 -11 -23 -25 -25 -14 -2 -23 -11 -25 -25 -2 -14 -11 -23 -25 -25 -14 -2 -23 -11 -25 -25 -2 -14 -11 -23 -25 -25 -14 -2 -23 -11 -25 -25 -2 -14 -11 -23 -25 -25 -14 -2 -23 -11 -25 -25 -2 -14 -11 -23 -25 -25 -14 -2 -23 -11 -25 -25 -2 -14 -11 -23 -25 -25 -15 -2 -23 -10 -23 -23 0 -12 -10 -23 -25 -29 -14 -5 -25 -17 -25 -25 0 -9 -7 -18 -15 -21 -22 -9 -22 -174 0 -174 11 0 14 -7 9 -25 -8 -33 18 -63 62 -71 24 -4 34 -12 34 -25 0 -12 7 -19 20 -19 11 0 20 -7 20 -16 0 -30 53 -84 83 -84 24 0 27 -4 27 -32 1 -47 20 -68 64 -68 32 0 36 -3 36 -26 0 -17 6 -28 19 -31 11 -3 21 -14 24 -25 3 -11 14 -22 25 -25 11 -3 22 -13 25 -24 3 -13 14 -19 32 -19 23 0 26 -4 22 -22 -2 -13 -2 -34 2 -48 6 -21 14 -26 56 -30 50 -5 50 -5 47 -38 -2 -18 1 -32 7 -32 6 0 20 -9 31 -20 11 -11 29 -20 40 -20 13 0 20 -7 20 -20 0 -13 7 -20 20 -20 15 0 20 -7 20 -25 0 -14 9 -30 20 -37 11 -7 20 -18 20 -25 0 -8 13 -13 30 -13 17 0 30 -4 30 -10 0 -6 26 -10 59 -10 57 0 60 1 66 29 4 17 14 31 26 34 11 3 23 15 26 26 3 12 17 22 34 26 l29 7 0 114 c0 63 -4 114 -9 114 -5 0 -11 9 -14 20 -3 11 -12 20 -21 20 -9 0 -16 8 -16 20 0 16 -7 20 -30 20 -28 0 -30 3 -30 35 0 24 -5 35 -15 35 -8 0 -15 6 -15 14 0 10 -13 16 -37 18 -33 3 -38 6 -35 26 1 16 -4 25 -17 29 -11 3 -21 14 -24 25 -3 11 -14 22 -25 25 -11 3 -22 13 -25 24 -3 13 -14 19 -31 19 -24 0 -26 4 -26 39 0 45 -9 53 -65 61 -36 5 -40 8 -37 33 2 18 -2 27 -11 27 -8 0 -17 9 -20 20 -3 14 -14 20 -31 20 -19 0 -29 7 -36 25 -6 15 -17 25 -30 25 -13 0 -20 7 -20 20 0 13 7 20 19 20 12 0 21 9 25 25 4 16 13 25 25 25 12 0 21 9 25 25 4 16 13 25 25 25 12 0 21 9 25 25 4 16 13 25 25 25 12 0 21 9 25 25 4 16 13 25 25 25 12 0 21 9 25 25 4 16 13 25 25 25 12 0 21 9 25 25 4 16 13 25 25 25 12 0 21 9 25 25 4 16 13 25 25 25 12 0 21 9 25 25 4 16 13 25 25 25 12 0 21 9 25 25 4 16 13 25 25 25 12 0 21 9 25 25 4 16 13 25 25 25 12 0 21 9 25 25 4 16 13 25 26 25 13 0 20 7 20 20 0 11 7 20 15 20 12 0 15 19 15 115 0 134 -8 151 -75 157 -37 3 -40 5 -43 36 -3 32 -4 32 -58 32 -30 0 -54 -4 -54 -10z"/>
 </g>

</svg>