<!DOCTYPE svg PUBLIC "-//W3C//DTD SVG 20010904//EN" "http://www.w3.org/TR/2001/REC-SVG-20010904/DTD/svg10.dtd">
<svg version="1.0" xmlns="http://www.w3.org/2000/svg" width="75px" height="75px" viewBox="0 0 750 750" preserveAspectRatio="xMidYMid meet">
<g id="layer1" fill="#cccccc" stroke="none">
 <path d="M120 740 c0 -5 -6 -10 -14 -10 -8 0 -16 -10 -18 -22 -2 -17 -12 -24 -33 -28 -21 -4 -31 -11 -33 -28 -2 -12 -8 -22 -13 -22 -5 0 -9 -104 -9 -255 0 -151 4 -255 9 -255 5 0 11 -10 13 -22 2 -17 12 -24 33 -28 21 -4 31 -11 33 -28 2 -12 10 -22 18 -22 8 0 14 -4 14 -10 0 -6 92 -10 255 -10 163 0 255 4 255 10 0 6 6 10 14 10 8 0 16 10 18 22 2 17 12 24 33 28 21 4 31 11 33 28 2 12 8 22 13 22 5 0 9 104 9 255 0 151 -4 255 -9 255 -5 0 -11 10 -13 22 -2 17 -12 24 -33 28 -21 4 -31 11 -33 28 -2 12 -10 22 -18 22 -8 0 -14 5 -14 10 0 6 -92 10 -255 10 -163 0 -255 -4 -255 -10z"/>
 </g>

</svg>