<!DOCTYPE svg PUBLIC "-//W3C//DTD SVG 20010904//EN" "http://www.w3.org/TR/2001/REC-SVG-20010904/DTD/svg10.dtd">
<svg version="1.0" xmlns="http://www.w3.org/2000/svg" width="65px" height="75px" viewBox="0 0 650 750" preserveAspectRatio="xMidYMid meet">
<g id="layer1" fill="#666666" stroke="none">
 <path d="M30 735 c0 -8 -7 -15 -15 -15 -12 0 -15 -15 -15 -74 0 -64 3 -74 19 -79 14 -3 17 -11 14 -31 -4 -20 -1 -26 12 -26 11 0 15 -5 12 -15 -5 -10 4 -16 28 -21 25 -4 35 -12 35 -24 0 -13 9 -20 28 -22 21 -2 28 -9 30 -30 3 -24 0 -28 -23 -28 -14 0 -24 -4 -21 -9 11 -18 -6 -41 -31 -41 -13 0 -22 -4 -19 -9 10 -16 -5 -41 -24 -41 -11 0 -20 -10 -24 -25 -4 -14 -13 -25 -21 -25 -12 0 -15 -15 -15 -68 0 -67 0 -68 31 -79 22 -9 30 -17 26 -28 -5 -11 1 -15 22 -15 24 0 30 6 41 41 9 26 22 44 37 50 13 5 23 15 23 24 0 9 11 20 25 25 14 5 25 17 25 25 0 9 13 21 29 26 16 6 28 15 27 22 0 7 4 12 9 12 6 0 9 -6 9 -13 -1 -6 9 -12 21 -12 39 0 55 -11 55 -36 0 -15 6 -24 15 -24 9 0 20 -11 24 -24 5 -13 17 -26 25 -29 9 -4 16 -13 16 -21 0 -9 12 -18 28 -21 15 -4 44 -10 66 -15 52 -12 66 -4 66 36 0 24 5 34 15 34 12 0 15 14 15 64 l0 64 -42 11 c-51 13 -75 27 -65 38 5 4 -7 13 -25 19 -25 9 -32 17 -31 33 2 17 -3 21 -28 21 -26 0 -30 3 -27 23 2 14 10 22 22 22 10 0 22 10 27 23 5 12 15 22 24 22 8 0 20 11 25 24 4 13 20 26 34 30 18 4 23 11 19 22 -4 10 2 17 16 21 12 3 21 13 21 24 0 11 7 19 15 19 12 0 15 14 15 70 l0 70 -60 0 c-47 0 -60 -3 -60 -15 0 -9 -10 -15 -26 -15 -14 0 -23 -4 -20 -9 11 -18 -6 -41 -31 -41 -13 0 -22 -4 -19 -9 11 -18 -6 -41 -31 -41 -13 0 -22 -4 -19 -9 10 -16 -5 -41 -24 -41 -11 0 -20 -10 -24 -26 -9 -33 -36 -28 -54 9 -7 15 -19 27 -25 27 -7 0 -18 20 -26 44 -12 41 -15 44 -56 50 -39 6 -43 10 -49 41 -7 34 -9 35 -51 35 -33 0 -45 -4 -45 -15z"/>
 <path d="M523 33 c-32 -6 -30 -33 2 -33 18 0 25 5 25 20 0 11 -1 19 -2 19 -2 -1 -13 -4 -25 -6z"/>
 <path d="M573 33 c9 -2 23 -2 30 0 6 3 -1 5 -18 5 -16 0 -22 -2 -12 -5z"/>
 </g>

</svg>