<!DOCTYPE svg PUBLIC "-//W3C//DTD SVG 20010904//EN" "http://www.w3.org/TR/2001/REC-SVG-20010904/DTD/svg10.dtd">
<svg version="1.0" xmlns="http://www.w3.org/2000/svg" width="90px" height="90px" viewBox="0 0 900 900" preserveAspectRatio="xMidYMid meet">
<g id="layer1" fill="#666666" stroke="none">
 <path d="M30 871 l-30 -29 0 -392 0 -392 29 -29 29 -29 392 0 392 0 29 29 29 29 0 391 0 390 -24 28 -24 28 -397 3 -396 3 -29 -30z m750 -281 c0 -178 -1 -190 -18 -190 -16 0 -19 9 -19 60 -1 112 -67 205 -181 258 -46 21 -65 24 -126 20 -84 -6 -139 -31 -195 -88 -53 -55 -74 -103 -79 -182 -4 -59 -7 -68 -23 -68 -18 0 -19 10 -19 190 l0 190 330 0 330 0 0 -190z m-243 -7 c95 -45 101 -199 11 -266 -40 -30 -132 -34 -178 -9 -52 28 -80 75 -80 134 0 131 121 200 247 141z m243 -393 l0 -70 -75 0 -75 0 0 70 0 70 75 0 75 0 0 -70z"/>
 </g>

</svg>