<!DOCTYPE svg PUBLIC "-//W3C//DTD SVG 20010904//EN" "http://www.w3.org/TR/2001/REC-SVG-20010904/DTD/svg10.dtd">
<svg version="1.0" xmlns="http://www.w3.org/2000/svg" width="45px" height="70px" viewBox="0 0 450 700" preserveAspectRatio="xMidYMid meet">
<g id="layer1" fill="#cccccc" stroke="none">
 <path d="M224 685 c-77 -34 -182 -197 -209 -324 -18 -86 -20 -195 -4 -242 23 -68 97 -124 155 -117 35 4 65 57 72 130 5 54 -3 68 -62 105 -38 24 -38 26 -32 71 7 53 63 170 88 186 13 8 26 5 56 -12 22 -12 46 -22 55 -22 46 0 110 103 105 169 -2 30 -9 39 -38 53 -42 21 -142 22 -186 3z"/>
 </g>

</svg>