<!DOCTYPE svg PUBLIC "-//W3C//DTD SVG 20010904//EN" "http://www.w3.org/TR/2001/REC-SVG-20010904/DTD/svg10.dtd">
<svg version="1.0" xmlns="http://www.w3.org/2000/svg" width="55px" height="70px" viewBox="0 0 550 700" preserveAspectRatio="xMidYMid meet">
<g id="layer1" fill="#cccccc" stroke="none">
 <path d="M66 689 c-59 -14 -66 -24 -66 -94 0 -62 1 -64 42 -99 23 -20 66 -44 95 -53 29 -9 53 -22 53 -28 0 -7 -11 -32 -25 -56 -41 -72 -43 -82 -44 -168 -1 -138 43 -197 141 -188 86 9 115 18 140 44 20 22 23 36 26 127 4 101 3 103 -32 169 -37 68 -43 87 -26 87 28 0 121 44 148 71 29 28 32 37 32 89 0 69 -8 78 -93 96 -71 15 -330 17 -391 3z"/>
 </g>

</svg>